<svg width="98" height="100" viewBox="0 0 98 100" fill="none" xmlns="http://www.w3.org/2000/svg">
<path d="M83.5 49C83.5 68.0606 68.2709 83.5 49.5 83.5C30.7291 83.5 15.5 68.0606 15.5 49C15.5 29.9394 30.7291 14.5 49.5 14.5C68.2709 14.5 83.5 29.9394 83.5 49Z" stroke="#A2A9B1"/>
<circle cx="49" cy="15" r="15" fill="white"/>
<circle cx="15" cy="49" r="15" fill="white"/>
<circle cx="83" cy="49" r="15" fill="white"/>
<circle cx="49" cy="85" r="15" fill="white"/>
<path d="M41.5833 24C41.5833 24 40 24 40 22.4167C40 20.8333 41.5833 16.0833 49.5 16.0833C57.4167 16.0833 59 20.8333 59 22.4167C59 24 57.4167 24 57.4167 24H41.5833ZM49.5 14.5C50.7598 14.5 51.968 13.9996 52.8588 13.1088C53.7496 12.218 54.25 11.0098 54.25 9.75C54.25 8.49022 53.7496 7.28204 52.8588 6.39124C51.968 5.50045 50.7598 5 49.5 5C48.2402 5 47.032 5.50045 46.1412 6.39124C45.2504 7.28204 44.75 8.49022 44.75 9.75C44.75 11.0098 45.2504 12.218 46.1412 13.1088C47.032 13.9996 48.2402 14.5 49.5 14.5Z" fill="#3E5389"/>
<path d="M75.5833 58C75.5833 58 74 58 74 56.4167C74 54.8333 75.5833 50.0833 83.5 50.0833C91.4167 50.0833 93 54.8333 93 56.4167C93 58 91.4167 58 91.4167 58H75.5833ZM83.5 48.5C84.7598 48.5 85.968 47.9996 86.8588 47.1088C87.7496 46.218 88.25 45.0098 88.25 43.75C88.25 42.4902 87.7496 41.282 86.8588 40.3912C85.968 39.5004 84.7598 39 83.5 39C82.2402 39 81.032 39.5004 80.1412 40.3912C79.2504 41.282 78.75 42.4902 78.75 43.75C78.75 45.0098 79.2504 46.218 80.1412 47.1088C81.032 47.9996 82.2402 48.5 83.5 48.5Z" fill="#BD1D1D"/>
<path d="M41.5833 93C41.5833 93 40 93 40 91.4167C40 89.8333 41.5833 85.0833 49.5 85.0833C57.4167 85.0833 59 89.8333 59 91.4167C59 93 57.4167 93 57.4167 93H41.5833ZM49.5 83.5C50.7598 83.5 51.968 82.9996 52.8588 82.1088C53.7496 81.218 54.25 80.0098 54.25 78.75C54.25 77.4902 53.7496 76.282 52.8588 75.3912C51.968 74.5004 50.7598 74 49.5 74C48.2402 74 47.032 74.5004 46.1412 75.3912C45.2504 76.282 44.75 77.4902 44.75 78.75C44.75 80.0098 45.2504 81.218 46.1412 82.1088C47.032 82.9996 48.2402 83.5 49.5 83.5Z" fill="#94C11F"/>
<path d="M5.58333 58C5.58333 58 4 58 4 56.4167C4 54.8333 5.58333 50.0833 13.5 50.0833C21.4167 50.0833 23 54.8333 23 56.4167C23 58 21.4167 58 21.4167 58H5.58333ZM13.5 48.5C14.7598 48.5 15.968 47.9996 16.8588 47.1088C17.7496 46.218 18.25 45.0098 18.25 43.75C18.25 42.4902 17.7496 41.282 16.8588 40.3912C15.968 39.5004 14.7598 39 13.5 39C12.2402 39 11.032 39.5004 10.1412 40.3912C9.25045 41.282 8.75 42.4902 8.75 43.75C8.75 45.0098 9.25045 46.218 10.1412 47.1088C11.032 47.9996 12.2402 48.5 13.5 48.5Z" fill="#F28C00"/>
<path d="M53.5 40H43.5C42.837 40 42.2011 40.2634 41.7322 40.7322C41.2634 41.2011 41 41.837 41 42.5V57.5C41 58.163 41.2634 58.7989 41.7322 59.2678C42.2011 59.7366 42.837 60 43.5 60H53.5C54.163 60 54.7989 59.7366 55.2678 59.2678C55.7366 58.7989 56 58.163 56 57.5V42.5C56 41.837 55.7366 41.2011 55.2678 40.7322C54.7989 40.2634 54.163 40 53.5 40ZM47.25 45.3125C47.25 45.4356 47.2258 45.5575 47.1786 45.6713C47.1315 45.785 47.0625 45.8884 46.9754 45.9754C46.8884 46.0625 46.785 46.1315 46.6713 46.1786C46.5575 46.2258 46.4356 46.25 46.3125 46.25C46.1894 46.25 46.0675 46.2258 45.9537 46.1786C45.84 46.1315 45.7366 46.0625 45.6496 45.9754C45.5625 45.8884 45.4935 45.785 45.4464 45.6713C45.3992 45.5575 45.375 45.4356 45.375 45.3125C45.375 45.0639 45.4738 44.8254 45.6496 44.6496C45.8254 44.4738 46.0639 44.375 46.3125 44.375C46.5611 44.375 46.7996 44.4738 46.9754 44.6496C47.1512 44.8254 47.25 45.0639 47.25 45.3125ZM46.1737 47.24L47.8362 48.3475L50.1537 46.0287C50.2001 45.9822 50.26 45.9515 50.3249 45.941C50.3897 45.9304 50.4563 45.9406 50.515 45.97L52.875 47.1875V49.375C52.875 49.5408 52.8092 49.6997 52.6919 49.8169C52.5747 49.9342 52.4158 50 52.25 50H44.75C44.5842 50 44.4253 49.9342 44.3081 49.8169C44.1908 49.6997 44.125 49.5408 44.125 49.375V48.75C44.125 48.75 46.05 47.1575 46.1737 47.24ZM44.75 51.25H52.25C52.4158 51.25 52.5747 51.3158 52.6919 51.4331C52.8092 51.5503 52.875 51.7092 52.875 51.875C52.875 52.0408 52.8092 52.1997 52.6919 52.3169C52.5747 52.4342 52.4158 52.5 52.25 52.5H44.75C44.5842 52.5 44.4253 52.4342 44.3081 52.3169C44.1908 52.1997 44.125 52.0408 44.125 51.875C44.125 51.7092 44.1908 51.5503 44.3081 51.4331C44.4253 51.3158 44.5842 51.25 44.75 51.25ZM44.75 53.75H48.5C48.6658 53.75 48.8247 53.8158 48.9419 53.9331C49.0592 54.0503 49.125 54.2092 49.125 54.375C49.125 54.5408 49.0592 54.6997 48.9419 54.8169C48.8247 54.9342 48.6658 55 48.5 55H44.75C44.5842 55 44.4253 54.9342 44.3081 54.8169C44.1908 54.6997 44.125 54.5408 44.125 54.375C44.125 54.2092 44.1908 54.0503 44.3081 53.9331C44.4253 53.8158 44.5842 53.75 44.75 53.75Z" fill="#A2A9B1"/>
</svg>